<mxfile host="app.diagrams.net" modified="2023-12-12T11:39:09.954Z" agent="Mozilla/5.0 (Windows NT 10.0; Win64; x64) AppleWebKit/537.36 (KHTML, like Gecko) Chrome/119.0.0.0 Safari/537.36" version="22.1.7" etag="Qg3W0pY97eEidSpEXvNt" type="github">
  <diagram name="Страница — 1" id="gELSFtdft1wvXhsUkOA7">
    <mxGraphModel>
      <root>
        <mxCell id="0" />
        <mxCell id="1" parent="0" />
      </root>
    </mxGraphModel>
  </diagram>
</mxfile>
